<?xml version="1.0" encoding="utf-8"?>
<!-- Generator: Adobe Illustrator 24.3.0, SVG Export Plug-In . SVG Version: 6.00 Build 0)  -->
<svg version="1.1" id="Layer_1" xmlns="http://www.w3.org/2000/svg" xmlns:xlink="http://www.w3.org/1999/xlink" x="0px" y="0px"
	 viewBox="0 0 1172 179.9" style="enable-background:new 0 0 1172 179.9;" xml:space="preserve">
<style type="text/css">
	.st0{fill:#00C1FF;}
	.st1{fill:#6FE4FF;}
	.st2{fill:#6FE4FF;filter:url(#Adobe_OpacityMaskFilter);}
	.st3{mask:url(#mask0_5_10584_1_);}
	.st4{fill:#009EE4;}
</style>
<g>
	<path d="M312.5,116.4l3.3-7.4c2.2-5,6.1-6.3,11.2-2.6c9.6,7,25.4,12.3,46.4,12.3c17.9,0,25.6-4.6,25.6-10.1c0-6.1-6.3-7.9-16.8-9.2
		l-23.8-3.1c-28.7-3.7-43.1-14-43.1-31.9c0-19.3,15.8-34.6,52.3-34.6c20.3,0,33.5,3.1,42,6.3c9.4,3.7,10.7,6.8,10.7,14.4v9.8
		c0,6.1-2.2,8.3-8.3,8.3H405c-6.1,0-8.3-2.2-8.3-8.3v-3.3c-3.9-1.3-13.8-3.3-25.4-3.3c-20.1,0-30,3.7-30,9.8c0,4.6,5.9,7.2,16.6,8.8
		l23.4,3.1c28.7,3.7,43.8,12.3,43.8,32.8c0,21-19.9,34.4-55.4,34.4c-26,0-47-8.3-55.4-16C311.4,123.8,310.9,120.1,312.5,116.4z"/>
	<path d="M570.7,140.9h-12c-5.9,0-7.9-0.9-10.7-5.3l-22.8-33.5c-3.3-4.6-5.7-5.7-12.5-5.7h-22.8v36.1c0,6.1-2.2,8.3-8.3,8.3h-8.8
		c-6.1,0-8.3-2.2-8.3-8.3V23.9h-8.1c-6.1,0-8.3-2.2-8.3-8.3V8.3c0-6.1,2.2-8.3,8.3-8.3h25.2c6.1,0,8.3,2.2,8.3,8.3V72h20.3
		c6.8,0,9.2-1.1,12.5-5.7l19-29.3c3.1-4.6,5-5.5,10.9-5.5h12c6.6,0,7.9,5.3,4.2,10.7l-21.2,32.2c-2.2,3.1-4.8,6.3-7.4,9
		c2.6,2.2,6.3,5.9,7.9,8.1l26.7,38.9C578.5,135.7,577.2,140.9,570.7,140.9z"/>
	<path d="M612.1,161v-7.2c0-6.1,2.2-8.3,8.3-8.3h10.5c6.3,0,9.4-1.3,11.8-6.3l1.3-2.8l-50.1-94.7c-3.1-5.7-0.7-10.1,5.9-10.1h11.4
		c5.9,0,8.5,1.1,10.7,5.3l21,43.1c4.8,9.8,10.3,21.2,14.7,31.1c4.4-9.6,9.4-20.6,14.2-30.2l21.4-44c2-4.2,4.8-5.3,10.7-5.3h11.4
		c6.6,0,9,4.4,5.9,10.1l-57.1,108.3c-6.6,12.5-14.2,19.5-31.3,19.5h-12.5C614.3,169.4,612.1,167.2,612.1,161z"/>
	<path d="M861.1,85.8v2.6c0,6.1-2.2,8.3-8.3,8.3H763c3.1,11.6,14.7,22.8,39.4,22.8c22.1,0,32.2-7.2,36.8-10.5
		c5-3.7,8.5-2.4,11.2,2.6l3.7,7.2c2,3.7,0.9,6.6-2.4,9.4c-4.8,4.2-21.2,14.4-49.2,14.4c-37.6,0-63.9-22.1-63.9-56.7
		c0-33.9,25.2-56.2,61.3-56.2C835.9,29.8,861.1,51.9,861.1,85.8z M763,75.5h73.7c-2.8-11.4-14.4-22.1-37-22.1
		C777.3,53.4,765.9,64.1,763,75.5z"/>
	<path d="M1020.6,82.1v50.5c0,6.1-2.2,8.3-8.3,8.3h-8.8c-6.1,0-8.3-2.2-8.3-8.3V82.7c0-17.7-10.5-27.4-28.2-27.4
		c-13.8,0-30.2,8.5-38.3,17.5v59.7c0,6.1-2.2,8.3-8.3,8.3h-8.8c-6.1,0-8.3-2.2-8.3-8.3V55.4h-8.1c-6.1,0-8.3-2.2-8.3-8.3v-7.2
		c0-6.1,2.2-8.3,8.3-8.3h21.2c6.1,0,8.3,2.2,8.3,8.3v6.1c11.8-9.6,27.8-16.2,45.1-16.2C1002.7,29.8,1020.6,49.2,1020.6,82.1z"/>
	<path d="M1171.7,39.8v102.4c0,22.8-24.5,37.6-55.8,37.6c-29.5,0-43.5-8.8-49.9-14.7c-3.1-2.8-3.5-6.6-2-10.3l3.3-7.4
		c2.4-5.5,6.3-6.6,11.2-2.6c7.7,6.1,15.1,11.2,37.2,11.4c19.7,0,30.6-7.2,30.6-16v-10.5c-7.9,5-17.5,8.3-31.3,8.3
		c-35.4,0-59.9-20.8-59.9-54s24.5-54.3,59.9-54.3c15.3,0,25.4,4.4,32.2,9.6c1.8-3.7,5.2-7.9,9.6-7.9h6.6
		C1169.5,31.5,1171.7,33.7,1171.7,39.8z M1146.3,101.5v-35c-6.1-7.4-15.1-12-31.3-12c-19.5,0-33.7,11.2-33.7,29.5
		s14.2,29.3,33.7,29.3C1131,113.3,1139.9,108.8,1146.3,101.5z"/>
	<path class="st0" d="M31.6,166.2C13.2,176.8,0,168,0,152.3c0-16.7,0-66.7,0-66.7s0-50,0-66.7C0,3.2,13.2-5.6,31.6,5
		c28.7,16.5,114.7,65.9,114.7,65.9c11.4,6.6,11.4,23,0,29.6C146.4,100.4,60.3,149.8,31.6,166.2z"/>
	<path class="st1" d="M126.4,166.2c-18.4,10.6-31.6,1.8-31.6-13.9c0-16.7,0-66.7,0-66.7s0-50,0-66.7c0-15.7,13.2-24.5,31.6-13.9
		c28.1,16.1,112.2,64.4,112.2,64.4c12.6,7.2,12.6,25.2,0,32.4C238.6,101.8,154.4,150.1,126.4,166.2z"/>
	<defs>
		<filter id="Adobe_OpacityMaskFilter" filterUnits="userSpaceOnUse" x="0" y="0.3" width="155" height="170.5">
			<feColorMatrix  type="matrix" values="1 0 0 0 0  0 1 0 0 0  0 0 1 0 0  0 0 0 1 0"/>
		</filter>
	</defs>
	<mask maskUnits="userSpaceOnUse" x="0" y="0.3" width="155" height="170.5" id="mask0_5_10584_1_">
		<path class="st2" d="M126.4,166.2c-18.4,10.6-31.6,1.8-31.6-13.9c0-16.7,0-66.7,0-66.7s0-50,0-66.7c0-15.7,13.2-24.5,31.6-13.9
			c28.1,16.1,112.2,64.4,112.2,64.4c12.6,7.2,12.6,25.2,0,32.4C238.6,101.8,154.4,150.1,126.4,166.2z"/>
	</mask>
	<g class="st3">
		<path class="st4" d="M31.6,166.2C13.2,176.8,0,168,0,152.3c0-16.7,0-66.7,0-66.7s0-50,0-66.7C0,3.2,13.2-5.6,31.6,5
			c28.7,16.5,114.7,65.9,114.7,65.9c11.4,6.6,11.4,23,0,29.6C146.4,100.4,60.3,149.8,31.6,166.2z"/>
	</g>
</g>
</svg>
